<svg width="17" height="15" viewBox="0 0 17 15" fill="none" xmlns="http://www.w3.org/2000/svg">
<path d="M8.0126 3.82128L7.04702 2.73134C5.42195 1.00145 2.71533 0.556476 1.63967 2.73134C1.13468 3.75428 1.02074 5.23118 1.94286 7.11607C2.8312 8.93099 4.67932 11.1048 8.01249 13.4727C11.3457 11.1048 13.1928 8.93099 14.0821 7.11607C15.0043 5.23018 14.8913 3.75428 14.3853 2.73134C13.3097 0.556476 10.6033 0.948396 8.97817 2.6783L8.0126 3.82128ZM8.01249 14.6776C-6.79273 4.54623 2.62383 -3.00515 7.01239 1.17759C7.07032 1.23292 7.95703 2.11893 8.01239 2.17759C8.06678 2.11856 8.95353 1.23184 9.01239 1.17759C13.4 -3.00815 22.8177 4.54523 8.01249 14.6776Z" fill="white"/>
</svg>
