<svg width="20" height="20" viewBox="0 0 20 20" fill="none" xmlns="http://www.w3.org/2000/svg">
<g clip-path="url(#clip0_199_855)">
<path d="M14.6767 12.9299C15.887 11.2782 16.4292 9.23049 16.1945 7.19632C15.9599 5.16214 14.9659 3.29155 13.4114 1.95879C11.8568 0.626033 9.85635 -0.0706141 7.81021 0.00822737C5.76407 0.0870688 3.82315 0.935584 2.37575 2.38402C0.928359 3.83245 0.0812323 5.77398 0.00385504 7.82017C-0.0735222 9.86637 0.624556 11.8663 1.95843 13.4199C3.2923 14.9735 5.1636 15.9662 7.19794 16.1994C9.23229 16.4325 11.2796 15.8889 12.9304 14.6774H12.9292C12.9658 14.7274 13.0067 14.7753 13.0517 14.8211L17.8642 19.6336C18.0986 19.8682 18.4165 20 18.7481 20.0001C19.0797 20.0003 19.3977 19.8686 19.6323 19.6343C19.8668 19.3999 19.9987 19.0819 19.9988 18.7503C19.9989 18.4187 19.8673 18.1007 19.6329 17.8661L14.8204 13.0536C14.7758 13.0084 14.7277 12.9678 14.6767 12.9299ZM14.9992 8.12488C14.9992 9.02772 14.8213 9.92172 14.4758 10.7558C14.1303 11.5899 13.6239 12.3478 12.9855 12.9862C12.3471 13.6246 11.5892 14.1311 10.7551 14.4766C9.921 14.8221 9.02701 14.9999 8.12417 14.9999C7.22133 14.9999 6.32733 14.8221 5.49322 14.4766C4.65911 14.1311 3.90121 13.6246 3.26281 12.9862C2.62441 12.3478 2.118 11.5899 1.7725 10.7558C1.427 9.92172 1.24917 9.02772 1.24917 8.12488C1.24917 6.30152 1.9735 4.55283 3.26281 3.26352C4.55212 1.97421 6.30081 1.24988 8.12417 1.24988C9.94753 1.24988 11.6962 1.97421 12.9855 3.26352C14.2748 4.55283 14.9992 6.30152 14.9992 8.12488Z" fill="white"/>
</g>
<defs>
<clipPath id="clip0_199_855">
<rect width="20" height="20" fill="white"/>
</clipPath>
</defs>
</svg>
